<svg xmlns="http://www.w3.org/2000/svg" viewBox="0 0 540 640" width="540" height="640" role="img" aria-labelledby="tm-title tm-desc">
<title id="tm-title">ટ્યુરિંગ મશીનનું અવસ્થાચિત્ર 6</title>
<desc id="tm-desc">અવસ્થાચિત્ર: q₀ થી q₁: 1, 0, R; q₁ થી q₁: 1, 1, R; q₁ થી q₂: 0, 0, R; q₂ થી q₂: 1, 1, R; q₂ થી q₃: 0, 1, L; q₃ થી q₃: 1, 1, L; q₃ થી q₄: 0, 0, L; q₄ થી q₅: 1, 1, L; q₅ થી q₅: 1, 1, L; q₅ થી q₀: 0, 1, R; q₄ થી q₆: 0, 1, R; q₆ થી q₇: 0, 1, R; q₇ થી q₇: 1, 1, R; q₇ થી q₈: 0, 0, L; q₈ થી q₈: 1, 0, N</desc>
<defs><marker id="tm-arrow" markerWidth="10" markerHeight="10" refX="9" refY="5" orient="auto" markerUnits="userSpaceOnUse"><path d="M0,0 L10,5 L0,10" fill="none" stroke="#17233b" stroke-width="1.5"/></marker></defs>
<g fill="none" stroke="#17233b" stroke-width="2.2" marker-end="url(#tm-arrow)">
<path d="M110.0,454.0 L110.0,329.0"/>
<path d="M90,316 C42,356 42,244 90,284"/>
<path d="M110.0,274.0 L110.0,149.0"/>
<path d="M94,100 C54,52 166,52 126,100"/>
<path d="M136.0,120.0 L261.0,120.0"/>
<path d="M274,100 C234,52 346,52 306,100"/>
<path d="M290.0,146.0 L290.0,271.0"/>
<path d="M290.0,326.0 L290.0,451.0"/>
<path d="M306,500 C346,548 234,548 274,500"/>
<path d="M264.0,480.0 L139.0,480.0"/>
<path d="M308.4,281.6 L409.5,180.5"/>
<path d="M430.0,186.0 L430.0,311.0"/>
<path d="M450,324 C498,284 498,396 450,356"/>
<path d="M430.0,366.0 L430.0,491.0"/>
<path d="M450,504 C498,464 498,576 450,536"/>
</g>
<rect x="90.0" y="377.5" width="72" height="28" rx="4" fill="white" fill-opacity="0.93"/>
<text x="126.0" y="396.5" text-anchor="middle" font-family="Noto Sans, DejaVu Sans, sans-serif" font-size="15" fill="#17233b">1, 0, R</text>
<rect x="6.0" y="286.0" width="72" height="28" rx="4" fill="white" fill-opacity="0.93"/>
<text x="42.0" y="305.0" text-anchor="middle" font-family="Noto Sans, DejaVu Sans, sans-serif" font-size="15" fill="#17233b">1, 1, R</text>
<rect x="90.0" y="197.5" width="72" height="28" rx="4" fill="white" fill-opacity="0.93"/>
<text x="126.0" y="216.5" text-anchor="middle" font-family="Noto Sans, DejaVu Sans, sans-serif" font-size="15" fill="#17233b">0, 0, R</text>
<rect x="74.0" y="46.0" width="72" height="28" rx="4" fill="white" fill-opacity="0.93"/>
<text x="110.0" y="65.0" text-anchor="middle" font-family="Noto Sans, DejaVu Sans, sans-serif" font-size="15" fill="#17233b">1, 1, R</text>
<rect x="162.5" y="93.0" width="72" height="28" rx="4" fill="white" fill-opacity="0.93"/>
<text x="198.5" y="112.0" text-anchor="middle" font-family="Noto Sans, DejaVu Sans, sans-serif" font-size="15" fill="#17233b">0, 1, L</text>
<rect x="254.0" y="46.0" width="72" height="28" rx="4" fill="white" fill-opacity="0.93"/>
<text x="290.0" y="65.0" text-anchor="middle" font-family="Noto Sans, DejaVu Sans, sans-serif" font-size="15" fill="#17233b">1, 1, L</text>
<rect x="270.0" y="194.5" width="72" height="28" rx="4" fill="white" fill-opacity="0.93"/>
<text x="306.0" y="213.5" text-anchor="middle" font-family="Noto Sans, DejaVu Sans, sans-serif" font-size="15" fill="#17233b">0, 0, L</text>
<rect x="270.0" y="374.5" width="72" height="28" rx="4" fill="white" fill-opacity="0.93"/>
<text x="306.0" y="393.5" text-anchor="middle" font-family="Noto Sans, DejaVu Sans, sans-serif" font-size="15" fill="#17233b">1, 1, L</text>
<rect x="254.0" y="532.0" width="72" height="28" rx="4" fill="white" fill-opacity="0.93"/>
<text x="290.0" y="551.0" text-anchor="middle" font-family="Noto Sans, DejaVu Sans, sans-serif" font-size="15" fill="#17233b">1, 1, L</text>
<rect x="165.5" y="453.0" width="72" height="28" rx="4" fill="white" fill-opacity="0.93"/>
<text x="201.5" y="472.0" text-anchor="middle" font-family="Noto Sans, DejaVu Sans, sans-serif" font-size="15" fill="#17233b">0, 1, R</text>
<rect x="322.9" y="204.1" width="72" height="28" rx="4" fill="white" fill-opacity="0.93"/>
<text x="358.9" y="223.1" text-anchor="middle" font-family="Noto Sans, DejaVu Sans, sans-serif" font-size="15" fill="#17233b">0, 1, R</text>
<rect x="410.0" y="234.5" width="72" height="28" rx="4" fill="white" fill-opacity="0.93"/>
<text x="446.0" y="253.5" text-anchor="middle" font-family="Noto Sans, DejaVu Sans, sans-serif" font-size="15" fill="#17233b">0, 1, R</text>
<rect x="462.0" y="326.0" width="72" height="28" rx="4" fill="white" fill-opacity="0.93"/>
<text x="498.0" y="345.0" text-anchor="middle" font-family="Noto Sans, DejaVu Sans, sans-serif" font-size="15" fill="#17233b">1, 1, R</text>
<rect x="410.0" y="414.5" width="72" height="28" rx="4" fill="white" fill-opacity="0.93"/>
<text x="446.0" y="433.5" text-anchor="middle" font-family="Noto Sans, DejaVu Sans, sans-serif" font-size="15" fill="#17233b">0, 0, L</text>
<rect x="462.0" y="506.0" width="72" height="28" rx="4" fill="white" fill-opacity="0.93"/>
<text x="498.0" y="525.0" text-anchor="middle" font-family="Noto Sans, DejaVu Sans, sans-serif" font-size="15" fill="#17233b">1, 0, N</text>
<path d="M40,480 L83,480" fill="none" stroke="#17233b" stroke-width="2.2" marker-end="url(#tm-arrow)"/>
<circle cx="110" cy="480" r="26" fill="white" stroke="#17233b" stroke-width="2.2"/>
<text x="110" y="486" text-anchor="middle" font-family="Noto Sans, DejaVu Sans, sans-serif" font-size="19" fill="#17233b">q₀</text>
<circle cx="110" cy="300" r="26" fill="white" stroke="#17233b" stroke-width="2.2"/>
<text x="110" y="306" text-anchor="middle" font-family="Noto Sans, DejaVu Sans, sans-serif" font-size="19" fill="#17233b">q₁</text>
<circle cx="110" cy="120" r="26" fill="white" stroke="#17233b" stroke-width="2.2"/>
<text x="110" y="126" text-anchor="middle" font-family="Noto Sans, DejaVu Sans, sans-serif" font-size="19" fill="#17233b">q₂</text>
<circle cx="290" cy="120" r="26" fill="white" stroke="#17233b" stroke-width="2.2"/>
<text x="290" y="126" text-anchor="middle" font-family="Noto Sans, DejaVu Sans, sans-serif" font-size="19" fill="#17233b">q₃</text>
<circle cx="290" cy="300" r="26" fill="white" stroke="#17233b" stroke-width="2.2"/>
<text x="290" y="306" text-anchor="middle" font-family="Noto Sans, DejaVu Sans, sans-serif" font-size="19" fill="#17233b">q₄</text>
<circle cx="290" cy="480" r="26" fill="white" stroke="#17233b" stroke-width="2.2"/>
<text x="290" y="486" text-anchor="middle" font-family="Noto Sans, DejaVu Sans, sans-serif" font-size="19" fill="#17233b">q₅</text>
<circle cx="430" cy="160" r="26" fill="white" stroke="#17233b" stroke-width="2.2"/>
<text x="430" y="166" text-anchor="middle" font-family="Noto Sans, DejaVu Sans, sans-serif" font-size="19" fill="#17233b">q₆</text>
<circle cx="430" cy="340" r="26" fill="white" stroke="#17233b" stroke-width="2.2"/>
<text x="430" y="346" text-anchor="middle" font-family="Noto Sans, DejaVu Sans, sans-serif" font-size="19" fill="#17233b">q₇</text>
<circle cx="430" cy="520" r="26" fill="white" stroke="#17233b" stroke-width="2.2"/>
<text x="430" y="526" text-anchor="middle" font-family="Noto Sans, DejaVu Sans, sans-serif" font-size="19" fill="#17233b">q₈</text>
</svg>
